/* XPM */
static char *arr0_scaled[] = {
/* columns rows colors chars-per-pixel */
"9 14 6 1 ",
"  c #222222",
". c #232323",
"X c #282828",
"o c #292929",
"O c #2F2F2F",
"+ c #313131",
/* pixels */
"++++++Oo.",
"++++++o. ",
"++++Oo.. ",
"+++Oo... ",
"+OO..... ",
"+Oo..... ",
"O..   .. ",
"+o.      ",
"++o..... ",
"++Oo.... ",
"+++Oo... ",
"++++Oo.. ",
"+++++Oo. ",
"+++++++o."
};
