/* XPM */
static char *arr1_scaled[] = {
/* columns rows colors chars-per-pixel */
"9 14 10 1 ",
"  c #313131",
". c #373837",
"X c #3D3E3D",
"o c #414240",
"O c #434442",
"+ c #696E68",
"@ c #6A7069",
"# c #6C726C",
"$ c #717770",
"% c #777E76",
/* pixels */
"%%%%%%$X ",
"%%%%%#o  ",
"%%%%+O   ",
"%%%+O    ",
"%%@o     ",
"%#X      ",
"$.       ",
"$.       ",
"%#X      ",
"%%@o     ",
"%%%+O    ",
"%%%%@O   ",
"%%%%%#o  ",
"%%%%%%$X "
};
