/* XPM */
static char *arr2_scaled[] = {
/* columns rows colors chars-per-pixel */
"9 14 15 1 ",
"  c #767D73",
". c #767D75",
"X c #777E76",
"o c #7C8277",
"O c #7F8479",
"+ c #80867A",
"@ c #A8AA93",
"# c #A9AB93",
"$ c #AAAC94",
"% c #ACAD95",
"& c #ADAF96",
"* c #B0B198",
"= c #B2B399",
"- c #C0C0A2",
"; c #C2C2A4",
/* pixels */
";;;;;;;= ",
";;;;;-&o.",
";;;;-$O.X",
";;;-@+..X",
";;-@O...X",
";-@o..XXX",
"-&XXXXXXX",
"-=X.XXXXX",
";-&o...XX",
";;-@+.XXX",
";;;-@+..X",
";;;;-$+.X",
";;;;;-&o.",
";;;;;;-= "
};
