/* XPM */
static char *arr3_scaled[] = {
/* columns rows colors chars-per-pixel */
"9 14 11 1 ",
"  c #92AF9F",
". c #95AE9D",
"X c #98AF9E",
"o c #9BB19F",
"O c #92AFA0",
"+ c #92B0A0",
"@ c #96B2A0",
"# c #B6BCA2",
"$ c #B9BEA3",
"% c #BDC0A3",
"& c #C2C2A4",
/* pixels */
"+++++ .$&",
"+++++o#&&",
"+++Oo#&&&",
"++Oo#&&&&",
"+Oo#&&&&&",
"+X$&&&&&&",
".%&&&&&&&",
"@%&&&&&&&",
"+.$&&&&&&",
"+ o$&&&&&",
"++Oo#&&&&",
"+++ o#&&&",
"+++++o#&&",
"++++OO $&"
};
