/* XPM */
static char * arr4_xpm[] = {
"10 16 3 1",
" 	c None",
".	c #002B36",
"+	c #92B0A0",
".........+",
"........++",
".......+++",
"......++++",
".....+++++",
"....++++++",
"...+++++++",
"..++++++++",
"..++++++++",
"...+++++++",
"....++++++",
".....+++++",
"......++++",
".......+++",
"........++",
".........+"};
