/* XPM */
static char * arr5_scaled_xpm[] = {
"9 14 9 1",
" 	c None",
".	c #002B36",
"+	c #C4725B",
"@	c #323743",
"#	c #BB6E5A",
"$	c #D0785D",
"%	c #654650",
"&	c #B66C5A",
"*	c #694851",
"........+",
"......@#$",
".....%&$$",
"....%&$$$",
"...%&$$$$",
"..%#$$$$$",
".@+$$$$$$",
".@+$$$$$$",
"..%#$$$$$",
"...*&$$$$",
"....*&$$$",
".....%&$$",
"......@#$",
"........+"};
