/* XPM */
static char *arr6_scaled[] = {
/* columns rows colors chars-per-pixel */
"9 14 11 1 ",
"  c #4B3B51",
". c #4A3E53",
"X c #4A4054",
"o c #494254",
"O c #465861",
"+ c #445A61",
"@ c #465B62",
"# c #445D63",
"$ c #49676B",
"% c #4A686C",
"& c #4B696D",
/* pixels */
"&&&&&&&#X",
"&&&&&$@X ",
"&&&&$#X  ",
"&&&$@X   ",
"&&&#X    ",
"&$@      ",
"#@X      ",
"%@       ",
"&$@      ",
"&&$@X    ",
"&&$$@X   ",
"&&&&$@X  ",
"&&&&&$@X ",
"&&&&&&&# "
};
