/* XPM */
static char *arr7_scaled[] = {
/* columns rows colors chars-per-pixel */
"9 14 7 1 ",
"  c #4B696D",
". c #4E6A6D",
"X c #506B6D",
"o c #67746F",
"O c #6C756F",
"+ c #757C74",
"@ c #777E76",
/* pixels */
"@@@@@@@O.",
"@@@@@@O. ",
"@@@@+O.  ",
"@@@@oX   ",
"@@@oX    ",
"@+oX     ",
"@o.      ",
"OO.      ",
"++O.     ",
"@@+oX    ",
"@@@+oX   ",
"@@@@+OX  ",
"@@@@@+O. ",
"@@@@@@@O."
};
