/* XPM */
static char *arr8_scaled[] = {
/* columns rows colors chars-per-pixel */
"9 14 11 1 ",
"  c #313131",
". c #373837",
"X c #3C3D3C",
"o c #3F413F",
"O c #414240",
"+ c #656B65",
"@ c #676D66",
"# c #686E67",
"$ c #6C726B",
"% c #767D75",
"& c #777E76",
/* pixels */
"       .$",
"      X@%",
"     o+%&",
"    O+%%&",
"   O@%%%&",
"  O#%%%%&",
" X$%&&&&&",
" X$%&&&&%",
"  O#%%%&&",
"   O+%&&&",
"    O+%%&",
"     o+%&",
"      X@%",
"       .$"
};
