/* XPM */
static char *arrl_sf_scaled[] = {
/* columns rows colors chars-per-pixel */
"9 14 2 1 ",
"  c #565656",
". c None",
/* pixels */
"....... .",
"...... ..",
"..... ...",
".........",
"... .....",
".. ......",
". .......",
". .......",
".. ......",
"... .....",
".........",
"..... ...",
"...... ..",
"....... ."
};
