/* XPM */
static char *arrl_scaled[] = {
/* columns rows colors chars-per-pixel */
"9 14 15 1 ",
"  c #353535",
". c #363636",
"X c #393939",
"o c #3A3A3A",
"O c #3B3B3B",
"+ c #3C3C3C",
"@ c #3D3D3D",
"# c #4B4B4B",
"$ c #4C4C4C",
"% c #4D4D4D",
"& c #4E4E4E",
"* c #505050",
"= c #515151",
"- c #525252",
"; c None",
/* pixels */
";;;;;;.*;",
";;;;;o%;;",
";;;;@#;;;",
";;;@#;;;;",
";;o%;;;;;",
";o%;;;;;;",
".*;;;;;;;",
";*;;;;;;;",
";o*;;;;;;",
";;o%;;;;;",
";;;@#;;;;",
";;;;@%;;;",
";;;;;o%;;",
";;;;;;.*;"
};
