/* XPM */
static char *arrl_ld_scaled[] = {
/* columns rows colors chars-per-pixel */
"9 14 17 1 ",
"  c #313131",
". c #343434",
"X c #353535",
"o c #363636",
"O c #373737",
"+ c #383838",
"@ c #393939",
"# c #3A3A3A",
"$ c #3B3B3B",
"% c #3C3C3C",
"& c #3D3D3D",
"* c #444444",
"= c #454545",
"- c #484848",
"; c #4A4A4A",
": c #4C4C4C",
"> c None",
/* pixels */
">>>>>>o: ",
">>>>>#-o ",
">>>>#*#  ",
">>>&*#   ",
">>&*#    ",
">#-o     ",
"o:       ",
">-o      ",
">#-o     ",
">>&*o    ",
">>>&*#   ",
">>>>&*#  ",
">>>>>#-o ",
">>>>>>o:o"
};
