/* XPM */
static char *arrone_scaled[] = {
/* columns rows colors chars-per-pixel */
"9 14 2 1 ",
"  c #3F3F3F",
". c None",
/* pixels */
"        .",
"       ..",
"      ...",
"     ....",
"    .....",
"   ......",
"  .......",
"  .......",
"   ......",
"    .....",
"     ....",
"      ...",
"       ..",
"        ."
};
