/* XPM */
static char *awesome_icon_scaled[] = {
/* columns rows colors chars-per-pixel */
"14 14 2 1 ",
"  c #9FBC00",
". c None",
/* pixels */
"..............",
"..............",
"...         ..",
"...         ..",
".........   ..",
"...         ..",
"...         ..",
"...         ..",
"...  .....  ..",
"...      .  ..",
"...      .  ..",
"..............",
"..............",
".............."
};
