/* XPM */
static char *cpu_clear_scaled[] = {
/* columns rows colors chars-per-pixel */
"14 14 2 1 ",
"  c #B4B4B4",
". c None",
/* pixels */
"..............",
"..............",
"..............",
"..............",
".... .  . ....",
"......  ......",
"....      ....",
"....      ....",
"......  ......",
".... .  . ....",
"..............",
"..............",
"..............",
".............."
};
