/* XPM */
static char *dict_scaled[] = {
/* columns rows colors chars-per-pixel */
"14 12 18 1 ",
"  c #313131",
". c #3E3E3E",
"X c #404040",
"o c #474747",
"O c #525252",
"+ c #686868",
"@ c #6D6D6D",
"# c #707070",
"$ c #7B7B7B",
"% c #888888",
"& c #8A8A8A",
"* c #939393",
"= c #949494",
"- c #999999",
"; c #9E9E9E",
": c #A5A5A5",
"> c #AAAAAA",
", c #B4B4B4",
/* pixels */
"              ",
"              ",
"   $****=O    ",
"   :*..,%=X   ",
"   :%  ,%=X   ",
"   :%+o:%=X   ",
"   :>>>>%=X   ",
"   :,,,,*-X   ",
"   ;@@@#@=X   ",
"   .****=O    ",
"              ",
"              "
};
