/* XPM */
static char *floating_scaled[] = {
/* columns rows colors chars-per-pixel */
"14 14 7 1 ",
"  c #313131",
". c #363636",
"X c #3A3A3A",
"o c #3D3D3D",
"O c #444444",
"+ c #484848",
"@ c #565656",
/* pixels */
"              ",
"              ",
"              ",
"    oOOOOOX   ",
"    +@@@@@O   ",
"    +@@@@@O   ",
"    ...X@@O   ",
"   O@@@.@@O   ",
"   O@@@.@@O   ",
"   O@@@ ++o   ",
"   XOOO       ",
"              ",
"              ",
"              "
};
