/* XPM */
static char *floating_focus_active_scaled[] = {
/* columns rows colors chars-per-pixel */
"14 14 2 1 ",
"  c #F0DFAF",
". c None",
/* pixels */
"..............",
"..............",
"..............",
"..............",
"...... .......",
"...... .......",
"....  .  .....",
"...... .......",
"...... .......",
"..............",
"..............",
"..............",
"..............",
".............."
};
