/* XPM */
static char *hdd_scaled[] = {
/* columns rows colors chars-per-pixel */
"14 14 33 1 ",
"  c #D0785D",
". c #D17B61",
"X c #D08068",
"o c #D1846C",
"O c #D08973",
"+ c #D08A74",
"@ c #D18D79",
"# c #D18E7A",
"$ c #D18F7B",
"% c #D0917D",
"& c #D09481",
"* c #D09583",
"= c #D09887",
"- c #D09988",
"; c #D09E8F",
": c #D0A497",
"> c #D1A497",
", c #D0A79A",
"< c #D0A89B",
"1 c #D0ABA0",
"2 c #D0AEA3",
"3 c #D0AFA5",
"4 c #D1B0A6",
"5 c #D1B6AE",
"6 c #D0B7B0",
"7 c #D1BDB7",
"8 c #D1BDB8",
"9 c #D0C0BA",
"0 c #D1C0BA",
"q c #D0C0BD",
"w c #D1C3BF",
"e c #D1C6C2",
"r c #D1C6C3",
/* pixels */
"              ",
"              ",
"     %-*X%.   ",
"    *ee7<q%   ",
"    3,8q61,   ",
"    38r&e9:   ",
"    48O $7:   ",
"    4& > ;:   ",
"    4q%.%6:   ",
"    46q;98:   ",
"    119e64;   ",
"    +=%%$&o   ",
"              ",
"              "
};
