/* XPM */
static char *mail_scaled[] = {
/* columns rows colors chars-per-pixel */
"14 12 12 1 ",
"  c #313131",
". c #4E4E4E",
"X c #525252",
"o c #6B6B6B",
"O c #737373",
"+ c #7D7D7D",
"@ c #818181",
"# c #858585",
"$ c #888888",
"% c #8C8C8C",
"& c #A2A2A2",
"* c #B4B4B4",
/* pixels */
"              ",
"              ",
"              ",
"   %******%   ",
"   o$****$o   ",
"   &+$**$+&   ",
"   @O+##+O@   ",
"   O**@@**O   ",
"   .XXXXXX.   ",
"              ",
"              ",
"              "
};
