/* XPM */
static char *music_scaled[] = {
/* columns rows colors chars-per-pixel */
"14 12 2 1 ",
"  c #B4B4B4",
". c None",
/* pixels */
"..............",
"..............",
"..............",
".....    .....",
"..... .. .....",
"..............",
"..............",
".... ... .....",
"...  ..  .....",
"..............",
"..............",
".............."
};
