/* XPM */
static char *square_unsel_scaled[] = {
/* columns rows colors chars-per-pixel */
"4 14 2 1 ",
"  c #828A8C",
". c None",
/* pixels */
"    ",
" .. ",
" .. ",
"    ",
"....",
"....",
"....",
"....",
"....",
"....",
"....",
"....",
"....",
"...."
};
