/* XPM */
static char *square_sel_scaled[] = {
/* columns rows colors chars-per-pixel */
"4 14 2 1 ",
"  c #535D6C",
". c None",
/* pixels */
"    ",
"    ",
"    ",
"....",
"....",
"....",
"....",
"....",
"....",
"....",
"....",
"....",
"....",
"...."
};
