/* XPM */
static char *task_scaled[] = {
/* columns rows colors chars-per-pixel */
"14 12 17 1 ",
"  c #313131",
". c #353535",
"X c #383838",
"o c #3C3C3C",
"O c #404040",
"+ c #474747",
"@ c #525252",
"# c #5D5D5D",
"$ c #606060",
"% c #646464",
"& c #686868",
"* c #737373",
"= c #767676",
"- c #7D7D7D",
"; c #888888",
": c #8C8C8C",
"> c #939393",
/* pixels */
"              ",
"              ",
"              ",
"  +:>>>>&+.   ",
"  ;O    @*X   ",
"  ;O@# +=o    ",
"  ;O &$-Oo    ",
"  ;O  % &#    ",
"  +:>>>>=o    ",
"              ",
"              ",
"              "
};
