/* XPM */
static char *temp_scaled[] = {
/* columns rows colors chars-per-pixel */
"14 14 21 1 ",
"  c #4B3B51",
". c #4F4055",
"X c #534459",
"o c #55465B",
"O c #5B4D60",
"+ c #635668",
"@ c #675B6C",
"# c #695D6E",
"$ c #6B5F70",
"% c #736877",
"& c #756B79",
"* c #7B717F",
"= c #837A87",
"- c #877F8B",
"; c #8C848F",
": c #98919A",
"> c #A8A3A9",
", c #AEAAAF",
"< c #B0ACB1",
"1 c #BCBABD",
"2 c gray80",
/* pixels */
"              ",
"              ",
"              ",
"      = O;$   ",
"      &o>2;   ",
"    -+ <2>O   ",
"    o.,#<o    ",
"   X:1@,      ",
"   ;* 1       ",
"   %-*:       ",
"    %;X       ",
"              ",
"              ",
"              "
};
