/* XPM */
static char *tile_scaled[] = {
/* columns rows colors chars-per-pixel */
"14 14 6 1 ",
"  c #313131",
". c #363636",
"X c #3A3A3A",
"o c #444444",
"O c #515151",
"+ c #565656",
/* pixels */
"              ",
"              ",
"              ",
"   Xoo oooX   ",
"   o++.+++o   ",
"   o++.XXX    ",
"   o++.OOOo   ",
"   o++.OOOo   ",
"   o++.XXX.   ",
"   o++.+++o   ",
"   Xoo.oooX   ",
"              ",
"              ",
"              "
};
