/* XPM */
static char *tiletop_scaled[] = {
/* columns rows colors chars-per-pixel */
"14 14 7 1 ",
"  c #313131",
". c #363636",
"X c #3A3A3A",
"o c #414141",
"O c #444444",
"+ c #515151",
"@ c #565656",
/* pixels */
"              ",
"              ",
"              ",
"   XO.oo.OX   ",
"   O@X++X@o   ",
"   O@X++X@O   ",
"   O@X++X@O   ",
"    .......   ",
"   O@@@@@@O   ",
"   O@@@@@@O   ",
"   XOOOOOOX   ",
"              ",
"              ",
"              "
};
