/* XPM */
static char *tilebottom_scaled[] = {
/* columns rows colors chars-per-pixel */
"14 14 6 1 ",
"  c #313131",
". c #363636",
"X c #3A3A3A",
"o c #444444",
"O c #515151",
"+ c #565656",
/* pixels */
"              ",
"              ",
"              ",
"   XooooooX   ",
"   o++++++o   ",
"   o++++++o   ",
"    ......    ",
"   o+XOOX+o   ",
"   o+XOOX+o   ",
"   o+XOOX+o   ",
"   Xo.oo.oX   ",
"              ",
"              ",
"              "
};
